<?xml version="1.0" encoding="iso-8859-1"?>
<!-- Generator: Adobe Illustrator 19.0.0, SVG Export Plug-In . SVG Version: 6.00 Build 0)  -->
<svg version="1.1" id="Layer_1" xmlns="http://www.w3.org/2000/svg" xmlns:xlink="http://www.w3.org/1999/xlink" x="0px" y="0px"
	 viewBox="0 0 276.612 276.612" style="enable-background:new 0 0 276.612 276.612;" xml:space="preserve">
<g>
	<g>
		<g id="XMLID_25_">
			<g>
				<rect x="197.29" y="73.746" style="fill:#EAEEEF;" width="14.223" height="166.499"/>
				<rect x="62.311" y="73.746" style="fill:#EAEEEF;" width="14.223" height="166.499"/>
				<path style="fill:#2D213F;" d="M276.612,91.169v131.654c0,18.437-15.364,33.452-34.212,33.452H34.212
					C15.332,256.275,0,241.259,0,222.823V91.169c0-18.437,15.332-33.452,34.212-33.452h46.155V28.352
					c0-4.435,3.643-8.015,8.173-8.015h94.907c4.53,0,8.205,3.58,8.205,8.015v29.365H242.4
					C261.248,57.717,276.612,72.733,276.612,91.169z M260.235,222.823V91.169c0-9.598-8.015-17.423-17.835-17.423h-14.509v166.499
					H242.4C252.22,240.246,260.235,232.421,260.235,222.823z M211.514,240.246v-166.5H197.29v166.499
					C197.29,240.246,211.514,240.246,211.514,240.246z M180.881,240.246v-166.5h-87.97v166.499
					C92.912,240.246,180.881,240.246,180.881,240.246z M175.274,57.717V36.335h-78.53v21.383L175.274,57.717L175.274,57.717z
					 M76.534,240.246v-166.5H62.311v166.499C62.311,240.246,76.534,240.246,76.534,240.246z M45.933,240.246v-166.5H34.212
					c-9.852,0-17.835,7.824-17.835,17.423v131.654c0,9.598,7.983,17.423,17.835,17.423
					C34.212,240.246,45.933,240.246,45.933,240.246z"/>
				<path style="fill:#454D5B;" d="M260.235,91.169v131.654c0,9.598-8.015,17.423-17.835,17.423h-14.509v-166.5H242.4
					C252.22,73.746,260.235,81.571,260.235,91.169z"/>
				<rect x="92.912" y="73.746" style="fill:#454D5B;" width="87.97" height="166.499"/>
				<path style="fill:#454D5B;" d="M45.933,73.746v166.499H34.212c-9.852,0-17.835-7.824-17.835-17.423V91.169
					c0-9.598,7.983-17.423,17.835-17.423H45.933z"/>
			</g>
		</g>
		<path style="fill:#505967;" d="M45.933,112.492c-7.365,8.563-11.844,19.678-11.844,31.859v22.406
			c0,12.525,4.448,24.015,11.844,32.974V112.492z"/>
		<rect x="92.912" y="95.43" style="fill:#505967;" width="87.97" height="123.139"/>
		<path style="fill:#505967;" d="M227.891,95.43v123.139h3.7c11.296,0,21.452-4.774,28.643-12.383V107.73
			c-7.162-7.562-17.271-12.301-28.51-12.301C231.724,95.43,227.891,95.43,227.891,95.43z"/>
	</g>
</g>
<g>
</g>
<g>
</g>
<g>
</g>
<g>
</g>
<g>
</g>
<g>
</g>
<g>
</g>
<g>
</g>
<g>
</g>
<g>
</g>
<g>
</g>
<g>
</g>
<g>
</g>
<g>
</g>
<g>
</g>
</svg>
